<svg width="40" height="28" viewBox="0 0 40 28" fill="none" xmlns="http://www.w3.org/2000/svg">
<path d="M32.0694 1.01626C31.8437 0.586884 31.3994 0.358134 30.945 0.365009C30.4325 0.353134 29.9406 0.649384 29.7462 1.15751L27.9 6.03563C27.6569 6.68001 27.9819 7.39938 28.6262 7.64313C28.7706 7.69876 28.92 7.72501 29.0669 7.72501C29.5706 7.72501 30.045 7.41751 30.2337 6.91876L31.1237 4.56563L33.7325 9.50251C32.8556 9.21751 31.9225 9.05938 30.9525 9.05938C27.1556 9.05938 23.905 11.4231 22.5787 14.7538C20.1875 13.7925 18.3156 14.32 17.375 14.7494C16.0475 11.4213 12.7981 9.05938 9.00186 9.05938C8.01249 9.05938 7.06374 9.22501 6.17374 9.52001L8.79124 4.56501L9.68186 6.91813C9.87061 7.41626 10.3456 7.72438 10.8487 7.72438C10.995 7.72438 11.1444 7.69813 11.2894 7.64251C11.9331 7.39876 12.2581 6.67938 12.015 6.03501L10.1687 1.15688C9.97624 0.649384 9.48561 0.353134 8.97311 0.364384C8.51749 0.356259 8.07311 0.585634 7.84561 1.01563L1.33811 13.3338C1.33311 13.3438 1.33436 13.3538 1.32936 13.3631C0.48311 14.7369 -0.0150146 16.3469 -0.0150146 18.0763C-0.0150146 23.0481 4.02936 27.0925 9.00124 27.0925C13.9737 27.0925 18.0181 23.0481 18.0181 18.0763C18.0181 17.7938 18.0012 17.515 17.9756 17.2381C18.0419 17.2069 18.1106 17.1831 18.1725 17.1388C18.1881 17.1294 19.6856 16.125 21.9812 17.21C21.9544 17.4956 21.9375 17.7844 21.9375 18.0763C21.9375 23.0481 25.9819 27.0925 30.9531 27.0925C35.9256 27.0925 39.97 23.0481 39.97 18.0763C39.97 16.1975 39.3906 14.4513 38.4031 13.005L32.0694 1.01626ZM9.00061 24.5981C5.40374 24.5981 2.47811 21.6719 2.47811 18.0756C2.47811 14.4794 5.40374 11.5538 9.00061 11.5538C12.5969 11.5538 15.5231 14.4794 15.5231 18.0756C15.5231 21.6719 12.5969 24.5981 9.00061 24.5981ZM30.9519 24.5981C27.3556 24.5981 24.43 21.6719 24.43 18.0756C24.43 14.4794 27.3556 11.5538 30.9519 11.5538C33.1637 11.5538 35.1144 12.6656 36.295 14.3531L36.3712 14.4988C36.3981 14.5506 36.4369 14.59 36.47 14.6363C37.0975 15.6375 37.4744 16.81 37.4744 18.075C37.475 21.6719 34.5481 24.5981 30.9519 24.5981Z" fill="black"/>
</svg>
